<svg id="Layer_1" data-name="Layer 1" xmlns="http://www.w3.org/2000/svg" viewBox="0 0 170.78 100.69"><defs><style>.cls-1{fill:#0055a3;}.cls-2{fill:#e30613;}</style></defs><title>FS_sign_color [Converted]</title><path class="cls-1" d="M298.1,369.71A31.3,31.3,0,1,0,329.4,401,31.3,31.3,0,0,0,298.1,369.71Zm-27,30.82s-.67-18.15,17.21-25.21C278.69,384.44,275.41,386.85,271.1,400.53Z" transform="translate(-212.71 -369.71)"/><path class="cls-2" d="M223.14,392c19.6,25.37,45.95,40.93,74.95,40.93s55.37-15.56,75-40.93h10.44V470.4H254.19c78.94-7,115.61-62.62,119.8-73.37l4.91.08h-5.16s-27.2,40.42-77.22,40.42S222,397.11,222,397.11a21.24,21.24,0,0,0-5.71.28v73h-3.6V392Z" transform="translate(-212.71 -369.71)"/></svg>
