<svg width="224" height="48" viewBox="0 0 224 48" fill="none" xmlns="http://www.w3.org/2000/svg">
<g clip-path="url(#clip0_3885_184105)">
<path d="M138.328 0.90625H92.8345V45.1639H98.3747V6.43279H138.328V0.90625Z" fill="#0362A6"/>
<path d="M192.289 11.9141V23.1031H183.956V11.9141H178.506V39.5921H172.966V11.9141H128.824V39.5921H123.283V11.9141H103.96V17.4859H117.698V23.1031H103.96V45.1639H134.229V34.1108H148.147V17.4859H167.47V23.1031H153.552V45.1639H183.911V28.539H192.244V45.1186H197.739V17.4859H205.982V45.1639H211.567V17.4859H219.855V11.9141H192.289ZM117.698 39.5921H113.554H109.41V28.539H113.554H117.698V39.5921ZM142.562 28.539H138.418H134.229V17.4859H138.418H142.562V28.539ZM167.47 39.5921H163.281H159.092V28.539H163.281H167.515V39.5921H167.47Z" fill="#0362A6"/>
<path d="M174.272 0.90625H139.769V6.43279H174.272V0.90625Z" fill="#E70000"/>
<path d="M193.595 0.90625H175.668V6.43279H193.595V0.90625Z" fill="#E70000"/>
<path d="M215.757 0.90625H208.775V6.43279H215.757V0.90625Z" fill="#E70000"/>
<path d="M219.9 0.90625H217.198V6.43279H219.9V0.90625Z" fill="#E70000"/>
<path d="M207.423 0.90625H195.082V6.43279H207.423V0.90625Z" fill="#E70000"/>
<path d="M220.486 23.0117C218.684 23.0117 217.108 24.5972 217.108 26.4998C217.108 28.3118 218.684 29.9425 220.486 29.9425C222.423 29.9425 223.999 28.3571 223.999 26.4998C223.999 24.6425 222.423 23.0117 220.486 23.0117ZM220.486 29.2631C219.09 29.2631 217.874 27.9947 217.874 26.5451C217.874 24.9596 219.045 23.7365 220.486 23.7365C221.927 23.7365 223.144 25.0049 223.144 26.5451C223.144 27.9947 222.018 29.2631 220.486 29.2631Z" fill="#0362A6"/>
<path d="M221.387 26.546C221.567 26.4554 221.927 26.2742 221.927 25.7306C221.927 25.3229 221.702 24.7793 220.801 24.7793H219.315V28.1768H220.126V26.8631H220.306C220.396 26.8631 220.441 26.9084 220.531 26.9084C221.432 26.999 220.711 27.7238 221.207 28.1768H222.063C221.882 27.9956 221.972 27.9503 221.882 27.452C221.837 27.1349 221.837 26.6819 221.387 26.546ZM220.486 26.2289H220.081V25.3682H220.441C220.441 25.3682 221.162 25.2776 221.162 25.7306C221.162 26.1836 220.666 26.2289 220.486 26.2289Z" fill="#0362A6"/>
<path d="M94.2759 46.5229V47.9272H101.122V9.19608H222.648V2.31055H221.297V7.83709H99.7711V46.5229H94.2759Z" fill="#0362A6"/>
<path d="M105.312 46.5224V47.9267H137.067V36.8283H150.85V20.2486H166.029V18.8896H149.454V35.424H135.67V46.5224H105.312Z" fill="#0362A6"/>
<path d="M110.807 38.2332V29.9434H116.302V31.3023H112.203V38.2332H110.807Z" fill="#0362A6"/>
<path d="M116.302 18.8896H105.312V20.2486H116.302V18.8896Z" fill="#0362A6"/>
<path d="M125.986 13.3633H124.635V38.1874H125.986V13.3633Z" fill="#0362A6"/>
<path d="M135.67 18.8896V27.1795H137.067V20.2486H141.211V18.8896H135.67Z" fill="#0362A6"/>
<path d="M160.489 38.2332V29.9434H166.029V31.3023H161.885V38.2332H160.489Z" fill="#0362A6"/>
<path d="M175.668 13.3633H174.317V38.1874H175.668V13.3633Z" fill="#0362A6"/>
<path d="M186.749 13.3633H185.397V21.6531H186.749V13.3633Z" fill="#0362A6"/>
<path d="M190.893 29.9434H185.398V46.523H154.994V47.9273H186.749V31.3023H190.893V29.9434Z" fill="#0362A6"/>
<path d="M193.641 46.5224V47.9267H200.577V20.2486H204.676V18.8896H199.181V46.5224H193.641Z" fill="#0362A6"/>
<path d="M207.469 46.5225H212.964V18.8898H221.297V13.3633H222.648V20.2488H214.36V47.9268H207.469V46.5225Z" fill="#0362A6"/>
<path d="M25.5854 14.8129C25.5854 23.0122 32.2068 29.6712 40.3145 29.6712C48.4672 29.6712 55.0435 23.0122 55.0435 14.8582C55.0885 6.65903 48.4672 0 40.3145 0C32.1617 0 25.5854 6.65903 25.5854 14.8129Z" fill="#0362A6"/>
<path d="M27.6124 14.586C27.6124 14.586 27.2971 5.97912 35.7201 2.62695C31.1708 6.97571 29.6393 8.1082 27.6124 14.586Z" fill="white"/>
<path d="M5.00098 10.5547C14.2348 22.5591 26.6666 29.9429 40.3146 29.9429C53.9626 29.9429 66.3944 22.5591 75.6282 10.5547H80.5378V47.7003H19.6399C56.8453 44.3934 74.0967 18.0291 76.0786 12.9556L78.3758 13.0009H75.9435C75.9435 13.0009 63.1513 32.1626 39.5489 32.1626C15.9914 32.1626 4.46047 13.0009 4.46047 13.0009C3.06414 12.865 1.75789 13.1368 1.75789 13.1368V47.7456H0.0913086V10.6H5.00098V10.5547Z" fill="#E70000"/>
</g>
<defs>
<clipPath id="clip0_3885_184105">
<rect width="224" height="48" fill="white"/>
</clipPath>
</defs>
</svg>
