<svg width="194" height="47" viewBox="0 0 194 47" fill="none" xmlns="http://www.w3.org/2000/svg">
<path d="M0.198364 21.2563C0.198364 9.51676 9.85222 0 21.7609 0H46.1984V25.7437C46.1984 37.4832 36.5445 47 24.6359 47H0.198364V21.2563Z" fill="#0055A3"/>
<path d="M28.489 13.6985C31.324 13.6985 33.7106 14.541 35.6486 16.242C37.5867 17.9429 38.5317 20.391 38.5317 23.6022C38.5317 26.8133 37.5707 29.2773 35.6486 30.9783C33.7266 32.6793 31.34 33.5377 28.489 33.5377C26.0384 33.5377 23.9241 32.8064 22.1302 31.3439C20.3363 29.8814 19.2952 27.7672 19.0389 25.0011H15.8355V33.0767H10.0213V14.2549H15.8355V20.8997H19.2471C19.7437 18.5629 20.8488 16.7825 22.5627 15.5425C24.2765 14.3185 26.2466 13.6985 28.489 13.6985ZM28.489 29.0548C29.7543 29.0548 30.7634 28.6097 31.5002 27.7354C32.237 26.861 32.6054 25.478 32.6054 23.5863C32.6054 21.6946 32.237 20.3275 31.4842 19.4531C30.7314 18.5947 29.7383 18.1655 28.489 18.1655C27.4479 18.1655 26.599 18.5947 25.9102 19.4849C25.2375 20.3592 24.8851 21.7264 24.8851 23.6022C24.8851 25.478 25.2215 26.8451 25.8782 27.7354C26.5349 28.6097 27.3998 29.0548 28.489 29.0548Z" fill="#F9FAFB"/>
<path d="M55.5824 14.3878V16.7891C56.1312 15.8644 56.9024 15.1783 57.8962 14.701C58.8899 14.2237 59.9133 14 60.9664 14C63.2653 14 65.1342 14.8203 66.558 16.4759C67.9819 18.1315 68.6938 20.3688 68.6938 23.2176C68.6938 26.0664 67.9819 28.3186 66.558 29.9742C65.1342 31.6447 63.2653 32.465 60.9664 32.465C59.9281 32.465 58.9047 32.2264 57.8962 31.764C56.9024 31.2867 56.1163 30.6006 55.5824 29.6759V37.7749H50.1984V14.3878H55.5824ZM59.2014 18.2061C58.0445 18.2061 57.1101 18.6088 56.3981 19.4142C55.6862 20.2196 55.3154 21.4874 55.3154 23.2176C55.3154 24.9478 55.6862 26.2305 56.3981 27.0359C57.1101 27.8562 58.0445 28.2739 59.2014 28.2739C60.3286 28.2739 61.263 27.8264 62.0046 26.9315C62.7462 26.0366 63.117 24.7986 63.117 23.2176C63.117 21.6366 62.7462 20.4135 62.0046 19.5186C61.2778 18.6386 60.3434 18.2061 59.2014 18.2061Z" fill="#0055A3"/>
<path d="M94.3826 14V31.6596H89.3249V18.6983L84.6528 31.6596H81.286L76.6584 18.7281V31.6596H71.6007V14H78.9722L83.1548 25.6488L87.1001 14H94.3826Z" fill="#0055A3"/>
<path d="M109.17 21.1891V20.503C109.17 19.4739 108.933 18.743 108.458 18.3254C107.984 17.9078 107.227 17.6841 106.204 17.6841C104.35 17.6841 103.312 18.5491 103.074 20.2793H98.0462C98.1796 18.5342 99.0251 17.0427 100.568 15.8346C102.125 14.6115 104.142 14 106.649 14C109.259 14 111.232 14.5817 112.552 15.76C113.872 16.9383 114.524 18.8176 114.48 21.4278L114.421 25.261V27.0956C114.421 29.3925 114.554 31.0928 114.806 32.2115H109.526L109.467 30.0786C108.265 31.7789 106.308 32.644 103.564 32.644C101.843 32.644 100.404 32.1667 99.2327 31.2271C98.0758 30.2874 97.4825 29.0345 97.4825 27.4535C97.4825 26.4095 97.7643 25.4996 98.3131 24.724C98.8619 23.9634 99.6925 23.3369 100.79 22.8746C101.888 22.3973 103.104 22.0393 104.424 21.7708C105.759 21.5173 107.331 21.3234 109.17 21.1891ZM109.289 24.7986V24.3661C108.221 24.4705 107.361 24.5749 106.693 24.6793C106.026 24.7837 105.388 24.9329 104.78 25.1268C104.172 25.3207 103.727 25.5742 103.445 25.9023C103.163 26.2156 103.015 26.6034 103.015 27.0657C103.015 27.6325 103.252 28.0949 103.712 28.4379C104.172 28.781 104.765 28.96 105.492 28.96C108.028 28.96 109.289 27.5729 109.289 24.7986Z" fill="#0055A3"/>
<path d="M123.483 14.3878V16.7891C124.032 15.8644 124.803 15.1783 125.797 14.701C126.791 14.2237 127.814 14 128.867 14C131.166 14 133.035 14.8203 134.459 16.4759C135.883 18.1315 136.595 20.3688 136.595 23.2176C136.595 26.0664 135.883 28.3186 134.459 29.9742C133.035 31.6447 131.166 32.465 128.867 32.465C127.829 32.465 126.806 32.2264 125.797 31.764C124.803 31.2867 124.017 30.6006 123.483 29.6759V37.7749H118.099V14.3878H123.483ZM127.102 18.2061C125.945 18.2061 125.011 18.6088 124.299 19.4142C123.587 20.2196 123.216 21.4874 123.216 23.2176C123.216 24.9478 123.572 26.2156 124.299 27.0359C125.011 27.8562 125.945 28.2739 127.102 28.2739C128.229 28.2739 129.164 27.8264 129.905 26.9315C130.647 26.0366 131.018 24.7986 131.018 23.2176C131.018 21.6366 130.647 20.4135 129.905 19.5186C129.179 18.6386 128.244 18.2061 127.102 18.2061Z" fill="#0055A3"/>
<path d="M151.056 31.6596L144.915 22.5763H144.886V31.6596H139.502V14H144.886V22.3078H144.915L151.011 14H156.914L150.388 22.263L157.27 31.6447H151.056V31.6596Z" fill="#0055A3"/>
<path d="M171.286 26.6481H176.24C175.499 28.6169 174.327 30.1084 172.71 31.1078C171.094 32.1071 169.358 32.6142 167.489 32.6142C164.597 32.6142 162.268 31.7789 160.503 30.1084C158.738 28.4379 157.863 26.1559 157.863 23.2624C157.863 20.503 158.768 18.2807 160.592 16.5654C162.402 14.8651 164.627 14 167.267 14C170.159 14 172.428 14.9993 174.09 16.983C175.736 18.9668 176.478 21.562 176.314 24.724H163.292C163.381 25.9023 163.811 26.8122 164.582 27.4535C165.354 28.0949 166.273 28.4081 167.341 28.4081C169.284 28.423 170.589 27.8264 171.286 26.6481ZM167.282 18.1464C166.258 18.1464 165.383 18.4149 164.656 18.9668C163.93 19.5186 163.5 20.339 163.366 21.4576H170.975C170.93 20.3837 170.574 19.5634 169.892 18.9966C169.21 18.4298 168.35 18.1464 167.282 18.1464Z" fill="#0055A3"/>
<path d="M193.802 17.8481H188.121V31.6596H182.737V17.8481H177.056V14H193.802V17.8481Z" fill="#0055A3"/>
</svg>
